<svg xmlns="http://www.w3.org/2000/svg" version="1.1" xmlns:xlink="http://www.w3.org/1999/xlink" xmlns:svgjs="http://svgjs.dev/svgjs" width="1440" height="560" preserveAspectRatio="none" viewBox="0 0 1440 560"><g mask="url(&quot;#SvgjsMask1007&quot;)" fill="none"><path d="M1512 560L0 560 L0 367.06Q6.62 301.68, 72 308.3Q100.04 264.34, 144 292.37Q197.18 273.55, 216 326.73Q301.5 292.24, 336 377.74Q352.93 322.67, 408 339.6Q419.04 278.64, 480 289.68Q522.8 260.48, 552 303.28Q617.71 296.99, 624 362.69Q666.27 332.96, 696 375.23Q712.91 272.14, 816 289.05Q859.29 260.35, 888 303.64Q955.88 299.52, 960 367.41Q994.99 282.4, 1080 317.4Q1129.71 247.11, 1200 296.82Q1258.34 283.15, 1272 341.49Q1315.01 264.5, 1392 307.5Q1446.37 241.87, 1512 296.23z" fill="rgba(75, 68, 76, 1)"></path><path d="M1512 560L0 560 L0 372.16Q40.5 340.66, 72 381.16Q113.09 350.25, 144 391.34Q213.67 341.01, 264 410.68Q275.29 349.97, 336 361.26Q406.38 311.64, 456 382.03Q504.32 358.35, 528 406.67Q604.7 363.37, 648 440.07Q651.84 371.91, 720 375.75Q748.69 332.44, 792 361.14Q875.22 324.36, 912 407.57Q954.14 377.71, 984 419.85Q990.35 354.2, 1056 360.54Q1100.51 333.05, 1128 377.56Q1173.9 351.46, 1200 397.36Q1260.36 385.72, 1272 446.07Q1300.14 354.21, 1392 382.35Q1460.4 330.75, 1512 399.16z" fill="rgba(95, 89, 101, 1)"></path><path d="M1512 560L0 560 L0 438.66Q65.26 383.92, 120 449.18Q208.61 417.79, 240 506.4Q256.84 451.24, 312 468.08Q349.06 385.13, 432 422.19Q507.35 377.54, 552 452.9Q582.14 411.04, 624 441.18Q685.41 430.6, 696 492.01Q742.55 418.56, 816 465.11Q857.86 386.97, 936 428.82Q1024.24 397.06, 1056 485.29Q1086.53 443.82, 1128 474.35Q1185.02 459.37, 1200 516.39Q1229.93 426.32, 1320 456.26Q1369.35 433.61, 1392 482.96Q1433.33 404.28, 1512 445.61z" fill="rgba(192, 188, 189, 1)"></path><path d="M1464 560L0 560 L0 495Q101.67 476.67, 120 578.34Q126.31 512.65, 192 518.97Q221.13 476.1, 264 505.22Q294.43 463.65, 336 494.09Q388.28 474.37, 408 526.64Q469.35 515.99, 480 577.34Q508.91 534.25, 552 563.17Q572.58 511.75, 624 532.32Q672.72 461.04, 744 509.75Q834.7 480.45, 864 571.15Q887 522.15, 936 545.15Q949.9 487.05, 1008 500.95Q1076.7 449.65, 1128 518.36Q1193.27 511.63, 1200 576.91Q1201.28 506.19, 1272 507.47Q1326.25 441.72, 1392 495.97Q1462.99 494.96, 1464 565.95z" fill="white"></path></g><defs><mask id="SvgjsMask1007"><rect width="1440" height="560" fill="#ffffff"></rect></mask></defs></svg>