<svg transform="scale(2)" version="1.1" id="KmBwg0Fhsm" xmlns="http://www.w3.org/2000/svg" xmlns:xlink="http://www.w3.org/1999/xlink" x="0px" y="0px" viewBox="0 0 500 500" xml:space="preserve" class="pbimage_pbimage__wrapper__image__0LEis false"><title>Page Not Found 5</title><style type="text/css"> .st0{fill:#000005;} .st1{fill:#FFFFFF;} .st2{fill:#59BE4C;}
 .st2{fill:#5d4a69;}
 .st1{fill:#FFFFFF;}
 .st0{fill:#000005;}</style><g id="ufo"><g id="uvo"><path class="st0" d="M226.5,67.2c-4.1-10.9-23.2-36.8-59.7-21.9c-26.9,11-24.4,43.8-24.4,43.8C157.4,85.3,226.5,67.2,226.5,67.2z"></path><path class="st0" d="M228.9,67.8c-2.5-6.3-6.5-11.8-11.6-16.2c-7.7-6.6-17.3-10.6-27.5-11.4c-6.1-0.4-12.2,0.2-18.1,1.9
			c-5.9,1.7-11.7,4-16.6,7.9c-7.2,5.8-11.6,14.1-13.7,22.9c-0.8,3.3-1.3,6.6-1.5,10c-0.2,1.8-0.2,3.6-0.1,5.3c0,0.1,0,0.2,0,0.2
			c0,0.6,1.6,0.9,2,1c0.9,0.3,1.8,0.4,2.8,0.3c11.7-2.9,23.4-6,35.1-9.1c13.5-3.5,26.9-7,40.3-10.6l8.7-2.3c0.6-0.2-1.5-1-1.6-1
			c-1-0.4-2-0.5-3.1-0.4l-24.4,6.4c-14.5,3.8-28.9,7.5-43.4,11.3c-5.4,1.4-10.9,2.8-16.4,4.2l4.7,1.3c-0.2-4,0-7.9,0.8-11.8
			c1.4-8.1,4.5-16.1,10-22.3c3.4-3.8,7.6-6.9,12.3-9c5.9-2.7,12.1-4.3,18.6-4.8c2.6-0.2,5.2-0.2,7.8,0.1c2,0.2,3.9,0.6,5.7,1.3
			c4,1.4,7.7,3.4,11,6.1c5.6,4.5,10.7,10.6,13.2,17.4c0.2,0.7,1.7,0.9,2.3,1.1C226.5,67.7,229,68,228.9,67.8z"></path><path class="st1" d="M101.4,155.3c0,0,2.3-28.9,10.2-39.4s15.1-15.8,30.8-26.8s85.5-38.8,141.3-11.8c0,0,23.4,10.9,23.4,22.2
			s-30.4,34.3-111.2,53.8S100.7,162.3,101.4,155.3z"></path><path class="st0" d="M103.4,156.4c0.5-5.4,1.2-10.8,2.2-16.2c1.6-8.4,3.5-17.2,8.9-24.1c6.4-8.2,14.5-14.5,22.8-20.4
			c3.3-2.3,6.7-4.9,10.1-6.9c2.7-1.6,5.5-2.9,8.3-4.2c17.7-8,36.4-13.2,55.7-15.4c23.6-2.8,48.5-1,70.4,9c5.3,2.4,10.4,5.4,15.1,8.9
			c1.6,1.2,3.1,2.5,4.5,4c1.2,1.2,2.1,2.5,2.9,4c0.6,1.2,0.9,2.5,0.9,3.8v0.4c0,0.4,0-0.2,0,0s-0.1,0.6-0.2,0.9
			c-0.2,0.6-0.4,1.2-0.7,1.8c-0.1,0.3-0.3,0.6-0.5,0.9s-0.2,0.3-0.3,0.5s-0.2,0.3,0,0l-0.2,0.3c-1,1.5-2.2,2.9-3.5,4.2
			c-3.7,3.6-7.8,6.8-12.3,9.5c-15,9.5-31.9,15.9-48.6,21.6c-12.5,4.2-25.1,7.8-37.9,11c-13.2,3.3-26.4,6.3-39.8,8.7
			c-9.3,1.7-18.7,3-28.1,3.7c-6.1,0.5-12.1,0.4-18.2-0.2c-1.1-0.1-2.2-0.3-3.2-0.5c-0.1,0-0.3-0.1,0.1,0l-0.4-0.1l-0.7-0.2
			c-0.5-0.1-0.9-0.2-1.4-0.3c-0.8-0.2-1.5-0.4-2.2-0.7l-0.5-0.2c-0.6-0.2,0.4,0.2-0.1,0s-0.6-0.3-0.9-0.4l-0.8-0.4
			c-0.5-0.3,0.2,0.2,0.1,0.1s-0.3-0.2-0.4-0.3s-0.4-0.3-0.6-0.4s0.6,0.6,0.2,0.2c-0.1-0.1-0.2-0.2-0.3-0.3c-0.1-0.1-0.2-0.2-0.2-0.3
			c-0.2-0.1,0.5,0.7,0.2,0.2c-0.1-0.2-0.2-0.3-0.4-0.5c0.4,0.4,0.2,0.5,0,0c-0.3-0.7,0.1,0.4,0-0.1c0-0.2-0.1-0.3-0.1-0.5
			c-0.2-0.5,0,0.5,0-0.1C103.5,157,103.5,156.7,103.4,156.4c0.2-1.7-3.7-4.6-3.9-2.2c-0.6,5.6,5.8,9.1,10.2,10.4
			c4.5,1.2,9.2,1.8,13.9,1.8c7.7,0.1,15.3-0.4,22.9-1.4c11.5-1.4,23-3.6,34.4-6c14.2-3.1,28.4-6.6,42.4-10.6
			c20.1-5.8,40.2-12.6,58.7-22.5c5.8-3,11.4-6.5,16.6-10.5c3.4-2.5,6.3-5.6,8.7-9.1c2.2-3.3,2.4-7.6,0.6-11.1
			c-1.9-4-5.3-7.3-8.7-10.1c-3.3-2.6-6.7-5-10.4-7c-18.1-10.3-39.4-14.4-60-14.4c-21.8,0.2-43.5,4.2-63.9,11.9
			c-7,2.5-13.7,5.5-20.1,9.1c-3.6,2.1-7,4.6-10.4,7c-4.6,3.3-9.2,6.6-13.4,10.3c-3.7,3.2-7,6.8-10,10.6c-2.5,3.4-4.5,7.1-5.7,11.2
			c-2.7,8.2-4.2,16.9-5.2,25.4c-0.2,1.6-0.4,3.2-0.5,4.9S103.2,158.8,103.4,156.4z"></path><path class="st1" d="M401.3,416.8c-6.8-16.9-145.1-300.8-150.9-306.7s-24-5.9-59.1,5.1s-41.8,27.3-41.8,27.3S94.2,399.4,99,414.9
			l0,0c-2.5,6.1,0.3,13.4,11.9,21.9C159,471.9,431.7,466.2,401.3,416.8z"></path><path class="st2" d="M403.7,416.6c-1.1-2.7-2.3-5.3-3.5-7.9c-2.4-5.1-4.8-10.1-7.2-15.2c-3.3-7.1-6.7-14.2-10.2-21.2
			c-4.2-8.7-8.4-17.4-12.6-26.1c-4.7-9.8-9.5-19.6-14.3-29.5c-5.1-10.5-10.2-21.1-15.4-31.6c-5.3-10.9-10.7-21.8-16-32.6
			c-5.2-10.7-10.5-21.3-15.7-32c-5-10.2-10-20.3-15-30.4c-4.5-9.1-9-18.2-13.6-27.2c-3.8-7.7-7.7-15.3-11.6-23
			c-2.9-5.8-5.9-11.5-8.9-17.2c-1.8-3.4-3.6-6.9-5.6-10.3c-0.4-0.8-0.8-1.5-1.4-2.2c-1.9-2.2-5-3.3-7.7-3.9
			c-5.3-1.2-10.8-1.1-16.1-0.6c-8,0.8-16,2.3-23.8,4.4c-16.6,4.3-34.1,9.5-47.8,20.4c-3.3,2.5-6.1,5.5-8.6,8.8
			c-0.8,1-1.5,2.1-1.9,3.4c-0.6,2-0.9,4.1-1.3,6.2l-3.4,16.1c-1.7,8-3.3,15.9-5,23.9c-2.1,9.9-4.1,19.8-6.2,29.7
			c-2.3,11.1-4.6,22.2-6.8,33.3c-2.4,11.6-4.7,23.3-7,34.9c-2.3,11.5-4.5,23.1-6.7,34.6c-2,10.7-4,21.3-5.9,32
			c-1.6,9.1-3.2,18.2-4.7,27.4c-1.1,6.9-2.2,13.9-2.9,20.9c-0.4,4-1,8.1-0.7,12.1c0,0.5,0.2,1,0.2,1.4c0,0.1,0,0.5,0.1,0.2
			s-0.3,0.6-0.3,0.7c-0.2,0.6-0.3,1.2-0.4,1.9c-0.2,1.3-0.1,2.7,0.2,4c1.6,7,8.1,12.5,13.7,16.3c5.2,3.6,11.3,6,17.2,8
			c8.1,2.6,16.4,4.7,24.8,6.2c10,1.9,20.2,3.3,30.3,4.5c11.3,1.2,22.7,2.1,34.1,2.7c11.9,0.6,23.9,0.9,35.9,0.9
			c12,0,23.9-0.3,35.8-0.9c11.5-0.6,23-1.4,34.4-2.6c10.4-1.1,20.7-2.5,30.9-4.5c8.6-1.6,17-3.7,25.3-6.3c6.4-1.9,12.5-4.6,18.1-8.1
			c3.7-2.4,7.4-5.6,8.9-9.9C406.9,424,405.9,420,403.7,416.6c-0.8-1.3-5.6-0.7-4.8,0.5c2,3.3,3,7.5,1.5,11c-1.8,4.3-5.3,7-9.1,9.4
			c-5.7,3.3-11.7,5.8-18,7.6c-8.2,2.4-16.6,4.4-25,5.9c-9.9,1.8-20.1,3.1-30.2,4.1c-11.2,1.1-22.4,1.9-33.6,2.4
			c-11.8,0.5-23.7,0.7-35.5,0.7c-11.8-0.1-23.6-0.4-35.3-1c-10.9-0.6-21.9-1.5-32.9-2.8c-9.8-1.1-19.5-2.5-29-4.4
			c-7.9-1.5-15.7-3.6-23.3-6.1c-6.4-2.3-12-4.8-17.3-9s-11.6-10.3-10.3-17.6c0.1-0.6,0.3-1.1,0.5-1.7c0.1-0.3,0.1-0.8,0.1-0.7
			s0,0,0,0s-0.1-0.4-0.1-0.6c-0.1-0.6-0.1-1.2-0.1-1.8c0-4.4,0.4-8.9,1-13.3c0.9-7.2,2-14.4,3.1-21.5c1.5-9.3,3.1-18.5,4.8-27.7
			c1.9-10.7,3.9-21.3,6-32c2.2-11.4,4.4-22.8,6.7-34.2c2.3-11.5,4.6-23,6.9-34.5c2.2-10.9,4.4-21.8,6.7-32.8c2-9.7,4-19.3,6-29
			c1.6-7.8,3.3-15.5,4.9-23.3c1.1-5.2,2.2-10.4,3.3-15.6c0.4-1.9,0.7-3.9,1.2-5.9c-0.2,0.6,0.2-0.4,0.4-0.6c0.5-0.9,1.1-1.8,1.7-2.6
			c2.5-3.3,5.5-6.3,8.9-8.8c14-10.7,31.8-15.7,48.7-19.8c7.1-1.8,14.3-3,21.5-3.5c2.4-0.2,4.8-0.1,7.2,0.2c1.6,0.2,3.2,0.5,4.7,1.2
			c1.4,0.5,2.5,1.3,3.4,2.5c0.6,0.9,1.2,1.9,1.7,2.9c2.1,3.8,4.1,7.6,6.1,11.5c3.1,6,6.2,12,9.2,18.1c4,7.8,7.9,15.6,11.8,23.4
			c4.6,9.2,9.1,18.3,13.7,27.5c5,10.1,10,20.2,15,30.3c5.2,10.6,10.4,21.2,15.6,31.8c5.2,10.6,10.4,21.3,15.7,32.1
			c5.1,10.4,10.1,20.8,15.2,31.2c4.7,9.7,9.3,19.3,14,29c4.1,8.5,8.2,17,12.3,25.5c3.3,6.9,6.6,13.8,9.9,20.7
			c2.3,4.9,4.6,9.8,6.9,14.7c1.1,2.4,2.3,4.9,3.3,7.3C399.4,418.4,404.3,418,403.7,416.6z"></path><path class="st0" d="M139.9,107.7c0,0-3.8,5.2-5.5,1.6s1.7-9.5,4.5-8.6S141.2,106.2,139.9,107.7z"></path><path class="st0" d="M172.4,93.3c0,0-3.8,5.2-5.5,1.6s1.7-9.5,4.5-8.6S173.7,91.9,172.4,93.3z"></path><path class="st0" d="M198.8,86.6c0,0-3.8,5.2-5.5,1.6s1.7-9.5,4.5-8.6S200.1,85.2,198.8,86.6z"></path><path class="st0" d="M227.5,80.8c0,0-3.8,5.2-5.5,1.6s1.7-9.5,4.5-8.6S228.8,79.3,227.5,80.8z"></path><path class="st0" d="M255.2,80.5c0,0-5.5,3.3-5.7-0.7s5.3-8,7.5-6.2S257,79.7,255.2,80.5z"></path><path class="st1" d="M160.6,52.6c-0.4,0.4-0.7,0.8-1,1.2c-0.3,0.4-0.5,0.9-0.6,1.4c0,0.2,0,0.4,0.2,0.5c0.1,0.2,0.3,0.4,0.5,0.5
			c0.2,0.2,0.5,0.3,0.8,0.3c0.3,0.1,0.7,0.2,1,0.2h0.7c0.4,0,0.8-0.1,1.1-0.2l0.4-0.2c0.2-0.1,0.4-0.3,0.4-0.6
			c0-0.2,0.1-0.3,0.2-0.5l-0.1,0.3c0.2-0.6,0.6-1.1,1-1.5l-0.3,0.3l0.1,0c0.2-0.1,0.3-0.2,0.4-0.4c0.1-0.2,0.1-0.3,0-0.5
			c-0.1-0.2-0.2-0.4-0.4-0.5c-0.2-0.2-0.4-0.3-0.7-0.4c-0.6-0.2-1.2-0.4-1.9-0.3l-0.6,0.1C161.3,52.3,161,52.4,160.6,52.6
			L160.6,52.6z"></path><path class="st1" d="M154.7,62.5c-2.5,3.9-4,8.4-4.4,13c-0.1,1.1,4.8,0.9,4.9-0.7c0.5-4.4,2-8.7,4.3-12.4c0.5-0.8-1.6-1-1.9-1
			C156.7,61.3,155.2,61.6,154.7,62.5L154.7,62.5z"></path><path class="st2" d="M112.1,422c15-6.5,30.5-11.9,46.3-16.2c15.9-4.3,32-7.6,48.3-9.7c16.2-2.1,32.6-3.2,49-3.1
			c16.4,0,32.8,1.2,49.1,3.4c16.2,2.3,32.3,5.6,48,10.1c2,0.6,4,1.1,6,1.7c1.1,0.4,1.7-0.9,1.6-1.8c-0.1-1.2-0.9-2.3-2.1-2.8
			c-15.8-4.8-31.9-8.5-48.3-11c-49.1-7.7-99.3-5.3-147.5,7c-16,4.1-31.7,9.2-47,15.5c-1.9,0.8-3.8,1.6-5.7,2.4
			C107.9,418.4,110.1,422.9,112.1,422L112.1,422z"></path></g><path class="st2" d="M161.1,144.2c20.9,2.3,42-1.7,60.5-11.6c5.1-2.7,9.9-5.9,14.5-9.5c1.8-1.4-2.9-2.8-4.1-1.8
		c-15.6,12.3-34.5,19.6-54.3,21c-5.4,0.4-10.8,0.2-16.2-0.4c-0.7-0.1-2.5-0.2-2.6,0.9S160.5,144.2,161.1,144.2L161.1,144.2z" fill="#5d4a69"></path><path class="st2" d="M158.1,160.3v15.5c0,1.2,1.8,1.5,2.6,1.2c1.2-0.3,2.1-1.4,2.1-2.6v-15.5c0-1.2-1.8-1.5-2.6-1.2
		C159,158,158.1,159.1,158.1,160.3z" fill="#5d4a69"></path><path class="st2" d="M166.9,214.2v30.9c0,2.7,4.9,1.6,4.9-0.8v-31C171.8,210.6,166.9,211.6,166.9,214.2L166.9,214.2z" fill="#5d4a69"></path><path class="st2" d="M244.4,140.1c1.9,6,4.5,11.8,7.6,17.2c1.1,1.9,5.9,1.1,4.5-1.4c-2.9-5.2-5.3-10.7-7.2-16.4
		c-0.5-1.1-1.8-1.7-3-1.5C245.4,138.2,243.9,138.9,244.4,140.1L244.4,140.1z" fill="#5d4a69"></path><path class="st2" d="M268.6,254.2c0,7.4,2,14.7,5.8,21c0.7,1.1,2.1,1.4,3.2,0.7c1-0.5,1.9-2,1.2-3.1c-3.5-5.6-5.3-12.1-5.4-18.8
		c0.1-1.1-0.8-2.1-1.9-2.2c-0.1,0-0.2,0-0.2,0C270.1,251.9,268.6,252.9,268.6,254.2L268.6,254.2z" fill="#5d4a69"></path><path class="st2" d="M317.7,315.3c1.7,11.3,3.7,22.5,6.1,33.7c0.3,1.2,5.1,0.9,5,0.2c-2.4-11.2-4.4-22.4-6.1-33.7
		C322.5,314.4,317.6,314.6,317.7,315.3L317.7,315.3z" fill="#5d4a69"></path><path class="st2" d="M104.5,256.4c-4.3,11.9-7.9,24.1-10.6,36.5c-0.3,1.6,4.6,1.2,4.8-0.1c2.7-12.4,6.2-24.6,10.6-36.5
		C109.8,254.9,105,255,104.5,256.4z" fill="#5d4a69"></path><path class="st2" d="M125.5,197.4l-6.6,26c-0.8,3.1,4,3.4,4.7,0.6l6.6-26C131,194.9,126.2,194.7,125.5,197.4z" fill="#5d4a69"></path><path class="st2" d="M299.2,169.8c4.9,8.9,9.2,18.1,13,27.5c0.5,1.3,5.1,2.6,4.4,0.8c-3.8-9.4-8.1-18.6-13-27.5
		c-0.7-1-1.8-1.6-3-1.7C299.9,168.7,298.6,168.8,299.2,169.8L299.2,169.8z" fill="#5d4a69"></path><path class="st2" d="M335,208.8c5.4,14.8,12.4,29,20.7,42.4c0.7,1.1,5.1-1.3,4.5-2.2c-8.4-13.4-15.3-27.6-20.7-42.4
		C339.1,205.6,334.5,207.6,335,208.8L335,208.8z" fill="#5d4a69"></path><path class="st2" d="M326.9,225.7c1.4,5.2,3.2,10.3,5.6,15.2c1,1.9,5.8,0.8,4.7-1.4c-2.2-4.6-4-9.4-5.3-14.3
		c-0.4-1.1-1.6-1.7-2.7-1.4C328.4,223.9,326.6,224.5,326.9,225.7L326.9,225.7z" fill="#5d4a69"></path><ellipse class="st2" cx="249.9" cy="425.1" rx="153" ry="33" fill="#5d4a69"></ellipse><path class="st2" d="M400.5,425.3c0,0.4,0,0.9-0.1,1.3c-0.1,0.6,0,0,0,0.2s-0.1,0.5-0.2,0.8s-0.2,0.4-0.3,0.6
		c-0.2,0.5,0.2-0.3-0.1,0.2c-0.3,0.4-0.6,0.9-0.9,1.3c-0.2,0.2-0.3,0.4-0.5,0.6c0.5-0.6-0.1,0.1-0.2,0.3c-0.4,0.4-0.9,0.9-1.4,1.3
		c-0.5,0.4-0.9,0.8-1.4,1.1s0.2-0.1-0.4,0.3l-1.1,0.7c-6.4,4.1-13.2,6.4-20.5,8.5c-23.1,6.9-47.5,9.7-71.5,11.6
		c-31,2.4-62.1,2.6-93.1,0.7c-25.2-1.5-50.7-4.2-75.2-10.5c-8-2.1-16.1-4.5-23.5-8.3c-2.5-1.2-4.8-2.7-6.9-4.5
		c-0.4-0.4-0.8-0.8-1.2-1.1c-0.2-0.2-0.4-0.4-0.6-0.6s-0.2-0.2-0.3-0.4c-0.3-0.3,0.2,0.3,0,0c-0.6-0.8-1-1.6-1.4-2.5
		c0.2,0.6,0-0.1-0.1-0.2s-0.1-0.4-0.2-0.6s-0.1-0.4-0.1-0.6c-0.1-0.7-0.1,0.2,0-0.3s0.1-0.8,0.1-1.2c0.1-0.6-0.1,0.2,0-0.2
		c0.1-0.2,0.2-0.5,0.2-0.7s0.2-0.4,0.3-0.6c0.3-0.6-0.2,0.3,0.1-0.2c0.3-0.5,0.6-0.9,0.9-1.3c0.1-0.1,0.6-0.7,0.3-0.4
		s0.3-0.3,0.4-0.4c0.4-0.5,0.9-0.9,1.4-1.3s1-0.8,1.5-1.2c0.1-0.1,0.4-0.3,0,0l0.5-0.4l0.9-0.6c1.4-0.9,2.8-1.6,4.2-2.4
		c3.3-1.6,6.6-3,10.1-4.2c9.5-3.2,19.3-5.7,29.1-7.4c12.6-2.4,25.4-4,38.1-5.2c30.7-2.8,61.5-3.6,92.3-2.1c26.4,1.1,53,3.6,78.9,9.3
		c9,1.8,17.7,4.4,26.2,7.9c3,1.2,6,2.8,8.8,4.5c1,0.7,2,1.4,2.9,2.2c0.4,0.4,0.9,0.8,1.3,1.2c0.2,0.2,0.4,0.4,0.5,0.6l0.2,0.2
		c0.3,0.4-0.2-0.3,0,0c0.6,0.8,1,1.6,1.4,2.5c-0.2-0.6,0,0.1,0.1,0.2s0.1,0.4,0.2,0.6s0.1,0.4,0.1,0.6
		C400.4,425.1,400.4,425.2,400.5,425.3C400.4,425.8,400.4,424.8,400.5,425.3c0,3,4.8,2.4,4.8-0.2c0-5.1-3.8-8.8-7.7-11.5
		c-6.4-4.4-13.9-7.1-21.3-9.3c-10.5-3.1-21.2-5.6-32-7.2c-13.5-2.3-27.2-3.8-40.9-4.9c-31.9-2.5-63.9-2.8-95.8-0.8
		c-25.8,1.6-52,4.4-77.1,11c-8.2,2.2-16.5,4.8-23.9,8.8c-4.5,2.5-9.8,6-11.6,11.1c-1.6,4.7,0.7,9,4.1,12.1c5,4.6,11.7,7.4,18,9.6
		c9.7,3.4,19.6,6,29.7,7.8c12.8,2.5,25.8,4.2,38.7,5.5c31.6,3,63.4,3.8,95.1,2.3c27-1.2,54.3-3.7,80.8-9.8
		c9.2-1.9,18.2-4.8,26.8-8.4c5.4-2.4,11.3-5.5,14.8-10.4c1.3-1.7,2-3.8,2.1-6C405.3,422,400.5,422.6,400.5,425.3z" fill="#5d4a69"></path><path class="st0" d="M105.6,153.1c3.6-3.1,7-6.6,10.6-9.7c8.4-7.3,17.4-13.9,26.7-20c12.8-8.3,26.3-15.3,40.5-20.9
		c16.3-6.4,33.4-10.5,50.8-12c20.1-1.6,40.4,0.4,59.8,6.1c2.7,0.8,5.3,1.6,7.9,2.5c1.2,0.4,2.4,0.4,3.5-0.1c0.8-0.4,0.9-1.2,0-1.5
		c-20.3-7-41.8-10.2-63.3-9.5c-18.7,0.7-37.1,4.2-54.8,10.4c-15.2,5.3-29.7,12.3-43.4,20.7c-10.3,6.3-20.1,13.3-29.4,21
		c-4.5,3.7-8.8,7.7-13,11.8c-0.1,0.1-0.2,0.2-0.3,0.3c-0.8,0.7,0.3,1.3,0.9,1.4C103.4,153.9,104.7,153.7,105.6,153.1L105.6,153.1z" fill="#000005"></path><path class="st2" d="M226.4,316.2v30c0,1.3,1.7,2.1,2.8,2c1.2-0.1,2.2-1.1,2.2-2.3c0,0,0,0,0-0.1v-30c0-1.3-1.7-2.1-2.8-2
		C227.3,313.8,226.4,314.9,226.4,316.2C226.4,316.1,226.4,316.2,226.4,316.2z" fill="#5d4a69"></path></g><g id="paper"><path class="st1" d="M224.5,245.1c0,0-13.2,12.2-11.6,37s5.7,27.2,5.7,27.2l2.5-12.6c0,0,8.1,1.4,8.1,0v-6.1l6.1-3.4l1.4-6.1
		l7.1-1.4l2.7-6.8c0,0-8.8-20,2.4-34.6C240.2,236.6,231.1,239.1,224.5,245.1z"></path><path class="st0" d="M222.4,243.8c-1.6,1.6-3,3.4-4.2,5.3c-3,4.8-5.2,10-6.3,15.6c-1.8,8.4-1.3,17-0.3,25.5
		c0.6,5,1.3,10.3,3.1,15.1c0.6,1.9,1.8,3.6,3.5,4.8c0.2,0.1,2.4,1.3,2.6,0.6l2.4-12.6l-0.5,0.2c2.4,0.4,5.2,1,7.6,0.5
		c1.4-0.3,1.1-1.4,1.1-2.6v-4.4l-0.2,0.4l4.9-2.7c0.4-0.2,1.2-0.5,1.4-0.9c0.3-0.8,0.5-1.7,0.5-2.5c0.3-1,0.5-2.1,0.7-3.1
		c0-0.3,0.2-0.4,0-0.3c0.3-0.1,0.6-0.2,0.9-0.2l3.4-0.6c0.9-0.1,1.8-0.3,2.7-0.5c0.5-0.2,0.5-0.6,0.7-1.1l1.3-3.2
		c0.4-1,1.3-2.4,0.9-3.5c-0.2-0.5-0.2-0.6-0.5-1.2c-0.3-0.9-0.6-1.7-0.8-2.6c-0.7-2.5-1.2-5.1-1.5-7.7c-0.9-7.9,0.5-16,5.4-22.4
		c0.7-0.9-2.8-2.6-3.3-2.7C238.9,234.7,229,237.8,222.4,243.8c-0.6,0.5,3.2,3.6,4.3,2.7c4.5-4,10.1-6.5,16.1-7.1
		c1.8-0.2,3.7-0.2,5.5,0c0.7,0,1.3,0.1,2,0.3l-3.4-2.7c-7,9.2-6.9,21.7-3.4,32.3c0.3,1,0.7,1.9,1.1,2.9l-0.1-0.5l-1.4,3.4l-0.9,2.2
		c-0.1,0.3-0.2,0.5-0.3,0.8c0,0.1-0.2,0.4,0,0.3s-0.1,0-0.3,0c-0.3,0-0.5,0.1-0.8,0.1l-2.4,0.5l-3.6,0.7l-0.2,0.1l-0.7,3.3l-0.4,2
		c0,0.2-0.1,0.4-0.1,0.6s0.2,0,0.1,0c-0.4,0.3-0.7,0.5-1.1,0.6l-2.1,1.1l-2.8,1.6c-0.2,0-0.3,0.2-0.2,0.4v3.8c0.1,0.7,0.1,1.5,0,2.2
		c0,0.1,0,0-0.1,0.1c-0.2,0.1-0.5,0.2-0.7,0.2c-2.3,0.1-4.6-0.1-6.8-0.6c-0.2,0-0.4,0-0.5,0.2l-2.5,12.6l2.6,0.6
		c0.3,0.2,0.6,0.4,0.9,0.6c0.8,0.8-0.2-0.5,0.2,0.2c-0.5-0.7-0.9-1.5-1.2-2.4c-1.6-4.1-2.3-9.3-2.9-13.9c-1-8.3-1.7-16.7-0.1-25
		c1.1-5.6,3.1-10.9,6-15.7c1.3-2.3,2.9-4.3,4.7-6.1C227.2,245.9,223.4,242.8,222.4,243.8z"></path><path class="st0" d="M256.7,249.2c0,0-19.3-13.6-35.6,0c0,0,19.3-31.9,64.2-30.2C285.3,219,263.2,232.9,256.7,249.2z"></path><path class="st0" d="M258.6,247.9c-2.5-1.7-5.3-3.1-8.2-4.1c-6-2.3-12.5-2.8-18.8-1.5c-4.4,1-8.6,3.1-12.1,5.9l3.8,1.1
		c0.2-0.3,0.4-0.6,0.6-0.8s0.4-0.6,0.7-1l0.4-0.5l0.2-0.3c0.3-0.4-0.2,0.2,0.1-0.1c2.1-2.6,4.3-5.1,6.8-7.4
		c7.8-7.3,17.2-12.6,27.4-15.7c8.1-2.3,16.5-3.4,24.9-3l-0.7-2.5c-2.8,1.8-5.4,3.7-8,5.8c-5.5,4.3-10.5,9.2-14.9,14.6
		c-2.6,3.2-4.7,6.8-6.3,10.6c-1,2.4,3.9,2,4.6,0.3c2.6-6.5,7.2-12.1,12.2-16.9c4-3.9,8.3-7.5,12.9-10.7c0.9-0.6,1.8-1.3,2.8-1.9
		c1.4-0.9,1-2.4-0.7-2.5c-15-0.5-30,2.6-43.2,9.9c-8,4.4-15.1,10.3-20.9,17.4c-1.2,1.4-2.2,2.8-3.2,4.4c-0.5,0.8,0.1,1.4,0.8,1.6
		c1,0.3,2.1,0.1,3-0.6c4.8-4,11-5.9,17.2-5.2c4.4,0.5,8.7,1.9,12.6,4.1c0.8,0.4,1.6,0.9,2.4,1.4
		C256.4,251.5,260.7,249.4,258.6,247.9z"></path><path class="st0" d="M218.9,286.4c-0.3,0-0.6-0.1-0.8-0.4c-1.1-1.4-1.7-3.7-1.9-6c-0.5,0.1-1.1-0.3-1.1-0.9
		c-0.1-0.5,0.2-0.9,0.6-1.1l0.3-0.1c-0.1-1.8,0-3.6,0.1-5.4c0-0.6,0.5-1,1.1-0.9c0.6,0,1,0.5,0.9,1.1l0,0c-0.1,1.5-0.1,3-0.1,4.6
		l2.8-1c0.3-0.1,0.7,0,1,0.2c0.3,0.3,0.4,0.6,0.3,1l-2.2,8.2c-0.1,0.4-0.4,0.6-0.8,0.7L218.9,286.4z M218.1,279.3
		c0.1,1.1,0.3,2.1,0.5,3.2l1-3.7L218.1,279.3z"></path><path class="st0" d="M228.2,276.5c-0.9,0-1.8-0.3-2.5-0.8c-1.5-0.8-2.5-2.2-2.7-3.8c-0.3-3,2.4-5.7,2.6-5.9l0.1-0.1
		c1.2-1,2.9-1.2,4.3-0.6c1.4,0.6,2.4,1.8,2.7,3.3c0.2,1.5-0.2,5.8-2.5,7.3C229.5,276.3,228.8,276.5,228.2,276.5z M226.8,267.5
		c-0.6,0.7-2.1,2.5-1.9,4.1c0.2,1,0.9,1.9,1.8,2.3c1.4,0.9,2,0.4,2.2,0.3c1.4-0.9,1.8-4.2,1.7-5.4c-0.2-0.8-0.7-1.5-1.5-1.8
		C228.3,266.8,227.5,267,226.8,267.5z"></path><path class="st0" d="M235.6,272c-0.4,0-0.8-0.2-0.9-0.6c-0.6-1.8-0.9-3.8-0.9-5.7c-0.5,0.2-1.1,0-1.3-0.5c-0.1-0.3-0.1-0.7,0.1-1
		c0.4-0.4,0.8-0.8,1.3-1.1c0.1-1.6,0.4-3.2,0.7-4.8c0.1-0.6,0.7-0.9,1.2-0.8c0.6,0.1,0.9,0.7,0.8,1.2c0,0-0.3,1.5-0.5,3.5
		c0.9-0.3,1.9-0.6,2.9-0.8c0.4-0.1,0.8,0.1,1,0.4c0.2,0.3,0.3,0.7,0.1,1l-3.5,8.6C236.5,271.7,236.1,272,235.6,272L235.6,272z
		 M235.9,264.4c-0.1,1.1-0.1,2.2,0,3.3l1.6-3.8C236.9,264,236.4,264.2,235.9,264.4z"></path><path class="st0" d="M190,243.1l3.8,10.5l0.7-0.7l-18.6,2.9c-0.2,0-1.1,0.3-0.7,0.7c2.3,2.5,4.8,4.7,7.5,6.8c1.3,1,2.7,1.9,4.1,2.7
		c0.7,0.4,1.5,0.9,2.2,1.3c0.7,0.3,1.4,0.7,2,1.1c1.1,1.1-1.4,3.2-2.1,4l-3.9,4.5l-7.7,8.9c-0.5,0.5,0.7,1,1,1.1c1,0.3,2,0.4,3,0.2
		l7.9-1.1l3.4-0.5c0.7,0,1.4-0.1,2-0.3c-1.5-0.7-2-0.6-1.6,0c0.1,0.2,0.1,0.5,0.1,0.7c-0.1,1.1-0.2,2.2-0.5,3.3l-0.7,3.4l-1.5,7.8
		c-0.2,1.1,4.7,1.9,5,0.6l1.9-9.7c0.4-2,1.8-5.5-0.4-6.9c-2.6-1.7-6.3-0.6-9.1-0.2l-9.9,1.4l4,1.3l8-9.3l3.9-4.5
		c0.8-1,2.7-2.5,2.2-4s-2.6-1.9-3.8-2.6c-1.5-0.8-2.9-1.7-4.3-2.7c-2.9-2.1-5.7-4.4-8.1-7l-0.7,0.7l18.6-2.9
		c0.4-0.1,0.9-0.2,0.7-0.7l-3.8-10.5c-0.4-1.2-5.2-1.3-4.8-0.1L190,243.1z"></path></g><g id="book"><path class="st1" d="M172,390.3c0,0-20.9,39.5-16,39.5s45-4.3,64.3,0s20.2,8.4,24.4,8.2s15.8-7.4,34.5-9.7s55.5,2.3,54.5,0.3
		s-19-38.3-19-38.3s-63.6,6.9-70.2,8.9S178.1,388.3,172,390.3z"></path><path class="st0" d="M169.8,391.4c-2.9,5.5-5.7,11.1-8.4,16.7c-2,4.2-4,8.5-5.7,12.9c-0.7,1.7-1.4,3.5-1.9,5.2
		c-0.4,1.1-0.7,2.4-0.7,3.6c0,0.7,0.1,1.2,0.9,1.3c1.1,0,2.3,0,3.4-0.2c4.6-0.3,9.2-0.7,13.9-1c12.8-0.8,25.7-1.4,38.5-0.2
		c6.7,0.7,13.3,2.1,19.6,4.4c2.3,0.8,4.5,1.7,6.6,2.7c1.2,0.6,2.4,1.3,3.7,1.9c2.6,1.1,4.9,0.3,7.5-0.6c5.5-2,10.9-4.2,16.5-5.8
		c6.9-1.9,14.1-3,21.2-3.2c6.5-0.2,12.9,0,19.4,0.2c5.9,0.3,11.8,0.6,17.7,0.9c2.1,0.1,4.1,0.2,6.2,0.2c1.1,0.1,2.3,0,3.4-0.3
		c1.5-0.4,2.9-1.1,4.1-2.1c0.3-0.3,0.3-0.3,0.2-0.6c-0.3-0.9-0.7-1.8-1.2-2.6c-1.8-3.7-3.6-7.3-5.4-11c-3.8-7.7-7.7-15.5-11.5-23.2
		c-0.2-0.5-0.5-1-0.7-1.5h-0.1c-7.1,0.8-14.1,1.6-21.2,2.4c-12.2,1.4-24.4,2.8-36.5,4.5c-3.8,0.5-7.6,1-11.3,1.8
		c-0.9,0.3-1.8,0.4-2.8,0.5c-1.6,0-3.3,0-4.9-0.2c-11.8-1.1-23.6-3.4-35.3-5.3c-6-1-12-2-18.1-2.8c-3.8-0.5-7.7-1.2-11.5-1
		c-0.5,0-1,0.1-1.4,0.2c-1.1,0.4-2.1,0.9-3.1,1.5c-0.2,0.1-1.5,1-0.6,0.7c0.2-0.1-0.2,0,0.1,0l0.4-0.1c0.4,0,0.8,0,1.1-0.1
		c1,0,2.1,0.1,3.1,0.1c3,0.2,6.1,0.6,9.1,1.1c8.1,1.1,16.2,2.5,24.2,3.9c7.8,1.3,15.7,2.6,23.6,3.6c2.6,0.4,5.2,0.6,7.9,0.7
		c0.8,0,1.6,0,2.3-0.1c0.8-0.1,1-0.3,1.6-0.4c5.3-1.1,10.8-1.7,16.2-2.4c8.1-1.1,16.2-2,24.3-3c7.1-0.8,14.1-1.6,21.2-2.4l6-0.7
		c0.4-0.1,0.8-0.1,1.2-0.1c0.2,0,0-0.1,0,0c0.1,0.1,0.2,0.3,0.2,0.4c0.8,1.9,1.9,3.8,2.8,5.6c1.6,3.3,3.3,6.6,4.9,9.9
		c3.2,6.5,6.4,12.9,9.6,19.4l1.2,2.4c0.1,0.2,0.2,0.4,0.3,0.6c0,0,0,0.1,0,0.1s3.5-2.1,3.8-2.1c-0.9,0-1.8,0.2-2.6,0.2
		c-1.5,0-3-0.1-4.5-0.1c-9.5-0.4-19.1-1.1-28.6-1.3c-4.8-0.1-9.7-0.1-14.5,0.3c-6,0.5-11.9,1.5-17.6,3.2c-4.9,1.4-9.6,3-14.3,4.9
		c-2.1,0.8-4.7,2.2-7,1.9c-1.8-0.2-3.5-1.4-5.1-2.2c-3.9-1.9-8-3.4-12.2-4.5c-4.9-1.4-10-2.3-15.1-2.9c-5.1-0.5-10.2-0.6-15.3-0.6
		c-9.8,0-19.5,0.5-29.2,1.2c-3.1,0.2-6.1,0.5-9.1,0.6c-1.3,0.1-2.4,0.4-2.4-1.3c0.1-2.2,1-4.5,1.8-6.5c1.2-3.3,2.7-6.6,4.2-9.9
		c2.9-6.2,5.9-12.4,9.1-18.5c0.5-1,1.1-2.1,1.6-3.1c0.2-0.3-1.6,0.5-1.7,0.5C171.8,390.1,170.2,390.6,169.8,391.4z"></path><path class="st1" d="M244.5,434.1c0,0-48.1-20-83-8.4c0,0,18.1-40.4,23.3-40.7s52.7,1.8,57,12.1c0,0,57-13,60.1-10.7
		s19.9,39.4,19.9,39.4S262.3,415.7,244.5,434.1z"></path><path class="st0" d="M246.4,432.8c-6.2-2.5-12.5-4.6-19-6.3c-13.3-3.6-27.1-6.1-41-5.9c-8.6,0-17.1,1.3-25.3,3.8l2.7,1.4
		c2.2-4.8,4.4-9.6,6.8-14.4c3.7-7.5,7.4-15.3,12.2-22.1c0.1-0.2,0.3-0.4,0.5-0.6c0.2-0.3,0.4-0.5,0.6-0.8c0.4-0.5,0.8-0.9,1.2-1.3
		s-0.3,0.2-0.1,0c0.1-0.1,0.1-0.1,0.2-0.2c0.6-0.2-0.5,0.2,0.1,0c-0.3,0.1-0.7,0.2-1,0.3c-0.5,0.1,0,0,0.2,0c2.5,0,5,0.1,7.5,0.2
		c8.8,0.4,17.7,1.3,26.4,2.8c4.3,0.7,8.5,1.7,12.7,3c1.6,0.5,3.1,1.2,4.6,2c1.1,0.5,2.2,1.3,3,2.2c0.2,0.2,0.3,0.4,0.5,0.6
		c0.1,0.2-0.1-0.2,0.1,0.1c0.1,0.1,0.1,0.2,0.2,0.4c0.5,0.7,1.4,1,2.2,0.8c4.8-1.1,9.7-2.2,14.6-3.2c9.2-2,18.5-3.9,27.8-5.6
		c3.9-0.7,7.7-1.4,11.6-1.8c0.7-0.1,1.4-0.2,2.1-0.2h0.4c0.4,0-0.6,0-0.1,0h0.9c0.4,0,0.9,0,1.3,0c-0.6,0-0.4-0.1,0,0
		s-0.5-0.2-0.1,0c-0.3-0.1-0.2-0.2,0,0s0.3,0.3,0.4,0.5c0.3,0.4,0.6,0.9,0.9,1.4c0.7,1.1,1.5,2.7,2.3,4.1c2.2,4.1,4.2,8.3,6.3,12.5
		s4,8.5,6,12.7c1.1,2.5,2.2,5,3.4,7.4c0.1,0.1,0.1,0.2,0.2,0.4l3.8-2.2c-7.3-1.2-14.7-2.1-22.1-2.5c-13.5-0.9-27.5-0.9-40.7,2.4
		c-6.5,1.6-13.1,4.4-17.8,9.2c-0.5,0.4-0.5,1.1-0.1,1.5c0.2,0.2,0.5,0.4,0.7,0.4c1.2,0.2,2.5-0.2,3.4-1.1c1.7-1.6,3.6-3,5.7-4.1
		c0.6-0.3,1.2-0.6,1.9-0.9l0.9-0.4h0.1l0.7-0.2c1.4-0.5,2.8-1,4.2-1.4c2.9-0.8,5.9-1.4,8.9-1.8c3.3-0.5,6.5-0.7,9.6-0.9
		c6.5-0.3,13-0.2,19.5,0.2c2.8,0.2,5.7,0.4,8.5,0.7c2.6,0.2,4.2,0.4,6.7,0.7s4.9,0.6,7.4,1.1c0.9,0.2,1.9,0,2.7-0.5
		c0.5-0.3,1.4-1,1.1-1.7c-2.7-5.9-5.4-11.8-8.2-17.7c-2.1-4.4-4.2-8.8-6.5-13.1c-1.5-2.8-2.9-5.9-4.9-8.4c-1.4-1.7-3.9-1.3-5.8-1.2
		c-3.4,0.2-6.9,0.8-10.3,1.4c-9.4,1.6-18.8,3.5-28.2,5.5c-4,0.8-8,1.7-11.9,2.6c-2,0.5-4.1,0.8-6.1,1.4c-0.1,0-0.2,0-0.3,0.1
		l2.2,0.8c-1.2-2.8-4.1-4.4-6.7-5.5c-4-1.7-8.2-2.9-12.5-3.7c-9.4-1.8-19-3-28.6-3.5c-3.1-0.2-6.2-0.4-9.3-0.4
		c-1.1-0.1-2.2,0-3.2,0.3c-1.3,0.5-2.5,1.4-3.5,2.5c-2.3,2.7-4.3,5.7-6,8.9c-2.3,4-4.5,8.1-6.5,12.3c-3,5.9-5.9,11.9-8.6,18
		l-0.1,0.3c-0.7,1.7,1.7,1.7,2.7,1.4c13.4-4.4,28.1-4.1,41.9-2.1c6.4,1,12.8,2.3,19.1,4c2.6,0.7,5.2,1.4,7.7,2.2
		c1.1,0.3,2.2,0.7,3.3,1l1.4,0.5l0.8,0.3l0.4,0.1c2.1,0.7,4.1,1.5,6.2,2.3c1.2,0.4,2.4,0.2,3.4-0.5
		C246.7,434.4,247.5,433.2,246.4,432.8z"></path><path class="st1" d="M244.5,434.1c0,0-18-16.7-34-17.3s-36.4,3.2-36.4,1.7s20.2-40.1,20.2-40.1c33.7-8.6,50.2,13.4,50.2,13.4
		l11.7-5.5l-1,3.7l3.7,3.4l-2.9,4.2l4.4,3.2l-3,4.4l7.1,4.3l-6.5,4.5l6.5,6.2C264.5,420.3,247.7,428.7,244.5,434.1z"></path><path class="st0" d="M245.1,432.8c-5.9-5.5-12.6-10.1-19.9-13.7c-5.3-2.8-11.2-4.3-17.2-4.5c-6.7,0-13.4,0.3-20.1,1
		c-4.6,0.4-9.2,1.2-13.8,1.1c-0.4,0,0.1-0.1-0.4,0c-0.1,0-0.1-0.1-0.2,0c0.4,0,2.2,2.9,2.2,3.2c0-0.1-0.2,0.4,0,0.1
		c0-0.1,0.1-0.3,0.1-0.4c0.3-0.9,0.8-1.7,1.2-2.6c3.3-6.9,6.9-13.7,10.4-20.6c1.8-3.4,3.6-6.9,5.4-10.4l1.9-3.6
		c0.4-0.6,0.8-1.3,1.1-2c0-0.1,0.1-0.2,0.1-0.3l-0.6,0.4c10.3-2.6,21.1-2.9,31.1,0.7c1.8,0.6,3.5,1.4,5.1,2.2
		c1.4,0.7,2.8,1.5,4.1,2.4c1.2,0.8,2.4,1.7,3.5,2.6c0.4,0.4,0.9,0.8,1.3,1.1c-0.5-0.5,0.1,0.1,0.2,0.2l0.7,0.6
		c0.6,0.6,1.2,1.2,1.8,1.9l0.2,0.3c0.1,0.2-0.5-0.7-0.2-0.2l0.1,0.2c0.5,0.7,1.5,1.7,2.5,1.3l11.7-5.5l-3.3-3.5l-1,3.7
		c-0.2,0.8,0.6,2.1,1.2,2.6l3.7,3.4l-1.1-3l-2.9,4.2c-0.7,1,0.8,2.9,1.5,3.4l4.4,3.2l-1.5-3.4l-3,4.4c-0.8,1.2,1.1,3.2,2,3.7
		l7.1,4.3l-1.7-4l-6.5,4.4c-1,0.7,0.3,2.8,0.8,3.3l6.5,6.2l-0.8-3.3c-3,1.5-6,3.2-9,5c-2.3,1.4-4.6,2.9-6.7,4.5
		c-1.8,1.2-3.4,2.8-4.6,4.6c-0.9,1.5,2.3,5.2,3.4,3.5c1.2-1.7,2.7-3.1,4.4-4.2c2.2-1.6,4.4-3.1,6.8-4.5c2.8-1.7,5.8-3.3,8.7-4.8
		c1.1-0.6-0.4-2.9-0.8-3.3l-6.5-6.2l0.8,3.3l6.5-4.5c0.6-0.4,0.3-1.4,0.1-1.9c-0.4-0.9-1-1.6-1.8-2.1l-7.1-4.3l2,3.7l3-4.4
		c0.7-1-0.8-2.9-1.5-3.4l-4.4-3.2l1.5,3.4l2.9-4.2c0.6-0.8-0.5-2.5-1.1-3l-3.7-3.4l1.2,2.6l1-3.7c0.4-1.4-1.8-4.1-3.2-3.4l-11.7,5.5
		l2.5,1.3c-5.1-6.8-13.2-11.6-21.1-14.2c-8.1-2.6-16.8-3.2-25.2-1.8c-1.2,0.2-2.4,0.4-3.6,0.7c-0.9,0.2-2.4,0.2-3,1
		c-0.1,0.2-0.3,0.5-0.4,0.7l-2.3,4.4c-5.3,10.2-10.7,20.4-15.7,30.8c-0.7,1.2-1.2,2.5-1.7,3.8c-0.3,1.2,0,2.6,1,3.4
		c0.8,0.8,1.9,1.2,3.1,1.1c3.1-0.1,6.2-0.3,9.2-0.7c4.8-0.5,9.6-0.9,14.4-1.2s9.6-0.6,14.3,0.1c4.3,0.8,8.5,2.3,12.4,4.4
		c5.9,3.1,11.5,6.9,16.5,11.4c0.2,0.2,0.4,0.4,0.6,0.6s-0.6-0.5-0.2-0.1c0.6,0.5,1.7,1.4,2.3,0.5S245.7,433.4,245.1,432.8z"></path><path class="st0" d="M248,432c0-4.7-0.3-9.4-0.5-14c-0.3-6.7-0.5-13.5-0.8-20.2c0-1.2-0.1-2.5-0.1-3.7c0-0.4,0-0.8,0-1.3
		c0-0.8,0,0.5,0-0.2c0.1-1.3-0.7-2.5-1.8-3c-0.8-0.4-1.7,0-2.1,0.8c-0.1,0.2-0.1,0.4-0.1,0.6c0,4.7,0.3,9.4,0.5,14
		c0.3,6.7,0.5,13.4,0.8,20.2c0,1.2,0.1,2.5,0.1,3.7c0,0.4,0,0.8,0,1.3c0,0.8,0-0.5,0,0.1c-0.1,1.3,0.7,2.5,1.8,3
		c0.8,0.4,1.7,0,2.1-0.8C247.9,432.5,248,432.3,248,432L248,432z"></path><path class="st0" d="M232.1,396.2c-5.3,0.5-8.1,4.9-9.5,9.6c-0.4,1-0.5,2-0.3,3c0.5,1.1,1.8,1.6,3,1.3c1.3-0.2,2.5-1,3.2-2.2
		c0.5-1.2,0.8-2.6,0.7-3.9c0.2-4.4-0.9-9.8-5.9-10.9c-4.7-1.1-9.5,2.2-11.3,6.5c-0.9,2.2-1.2,4.6-0.8,7c0.6,3.1,4.4,1.7,6.1,0.4
		c4.1-3.2,4.5-8.4,3.9-13.2c-0.2-2.1-0.4-4.5-2.1-6.1s-4.2-1.7-6.3-1.6c-4.9,0.4-9.9,3.1-12.1,7.6c-0.9,1.7-2.1,5.3-0.2,6.7
		c2.1,1.7,5.5-0.2,7-1.9c1.7-1.9,2.3-4.5,1.4-6.9c-1-2.2-3.2-3.7-5.7-3.8c-1.3-0.1-2.5,0.5-3.2,1.5c-0.4,0.5-0.4,1.3,0.1,1.7
		c0.2,0.2,0.5,0.3,0.8,0.3c1.7,0.1,3.2,1.3,3.6,3c0.2,0.8,0.1,1.6-0.1,2.3c-0.1,0.3-0.3,0.6-0.5,0.9c-0.4,0.6-0.3,0.1,0,0.1
		c0.7,0,0.4,0.1,0.4-0.5c0-0.5,0-1,0.1-1.5c0.2-0.9,0.5-1.7,1-2.4c0.9-1.4,2.3-2.5,3.9-3c1.6-0.7,3.4-0.7,5-0.2
		c1.7,0.8,1.9,2.8,2.2,4.5c0.4,2.2,0.5,4.5,0.2,6.7c-0.1,0.8-0.4,1.6-0.8,2.3c-0.2,0.4-0.4,0.7-0.7,1.1c-0.2,0.2-0.3,0.4-0.5,0.5
		c-0.3,0.2-0.1,0.2,0.6-0.1l0.9,0.3c-0.6-0.4-0.3-2.3-0.3-3c0.1-1.1,0.3-2.3,0.8-3.3c0.5-1.5,1.9-2.5,3.5-2.5c2,0.1,3.3,2,3.9,3.7
		c0.4,1.2,0.5,2.4,0.5,3.6c0,0.7,0,1.4-0.1,2c0,0.3,0,0.6-0.1,0.9c-0.1,1.2-0.2,0.1,1.4,0l1.1,0.1c-0.4-0.1,1.1-4.1,1.4-4.6
		c0.5-1.1,1.3-2.4,2.6-2.5c1.3-0.1,2.4-0.8,2.9-2C234.1,396.6,233,396.1,232.1,396.2L232.1,396.2z"></path></g></svg>